<?xml version="1.0" encoding="UTF-8" standalone="no"?>
<!DOCTYPE svg PUBLIC "-//W3C//DTD SVG 1.1//EN"
 "http://www.w3.org/Graphics/SVG/1.1/DTD/svg11.dtd">
<!-- Generated by graphviz version 2.26.3 (20100126.1600)
 -->
<!-- Title: controllers_diagram Pages: 1 -->
<svg width="656pt" height="680pt"
 viewBox="0.00 0.00 656.00 680.00" xmlns="http://www.w3.org/2000/svg" xmlns:xlink="http://www.w3.org/1999/xlink">
<g id="graph1" class="graph" transform="scale(1 1) rotate(0) translate(4 676)">
<title>controllers_diagram</title>
<polygon fill="white" stroke="white" points="-4,5 -4,-676 653,-676 653,5 -4,5"/>
<!-- _diagram_info -->
<g id="node1" class="node"><title>_diagram_info</title>
<text text-anchor="start" x="441" y="-384.3" font-family="Times Roman,serif" font-size="13.00">Controllers diagram</text>
<text text-anchor="start" x="441" y="-367.3" font-family="Times Roman,serif" font-size="13.00">Date: Mar 14 2011 &#45; 16:39</text>
<text text-anchor="start" x="441" y="-350.3" font-family="Times Roman,serif" font-size="13.00">Migration version: 20110311212614</text>
<text text-anchor="start" x="441" y="-333.3" font-family="Times Roman,serif" font-size="13.00">Generated by RailRoady 1.0.1</text>
<text text-anchor="start" x="441" y="-316.3" font-family="Times Roman,serif" font-size="13.00">http://railroady.prestonlee.com</text>
</g>
<!-- PlacesController -->
<g id="node2" class="node"><title>PlacesController</title>
<polyline fill="none" stroke="black" points="157,-163.5 240,-163.5 "/>
<path fill="none" stroke="black" d="M240,-163.5C246,-163.5 252,-169.5 252,-175.5"/>
<polyline fill="none" stroke="black" points="252,-175.5 252,-370.5 "/>
<path fill="none" stroke="black" d="M252,-370.5C252,-376.5 246,-382.5 240,-382.5"/>
<polyline fill="none" stroke="black" points="240,-382.5 157,-382.5 "/>
<path fill="none" stroke="black" d="M157,-382.5C151,-382.5 145,-376.5 145,-370.5"/>
<polyline fill="none" stroke="black" points="145,-370.5 145,-175.5 "/>
<path fill="none" stroke="black" d="M145,-175.5C145,-169.5 151,-163.5 157,-163.5"/>
<text text-anchor="middle" x="198.5" y="-365.9" font-family="Times Roman,serif" font-size="14.00">PlacesController</text>
<polyline fill="none" stroke="black" points="145,-355.5 252,-355.5 "/>
<text text-anchor="start" x="153" y="-338.9" font-family="Times Roman,serif" font-size="14.00">create</text>
<text text-anchor="start" x="153" y="-319.9" font-family="Times Roman,serif" font-size="14.00">destroy</text>
<text text-anchor="start" x="153" y="-300.9" font-family="Times Roman,serif" font-size="14.00">edit</text>
<text text-anchor="start" x="153" y="-281.9" font-family="Times Roman,serif" font-size="14.00">index</text>
<text text-anchor="start" x="153" y="-262.9" font-family="Times Roman,serif" font-size="14.00">new</text>
<text text-anchor="start" x="153" y="-243.9" font-family="Times Roman,serif" font-size="14.00">show</text>
<text text-anchor="start" x="153" y="-224.9" font-family="Times Roman,serif" font-size="14.00">update</text>
<polyline fill="none" stroke="black" points="145,-214.5 252,-214.5 "/>
<polyline fill="none" stroke="black" points="145,-190.5 252,-190.5 "/>
<text text-anchor="start" x="153" y="-173.9" font-family="Times Roman,serif" font-size="14.00">_layout</text>
</g>
<!-- LoresController -->
<g id="node3" class="node"><title>LoresController</title>
<polyline fill="none" stroke="black" points="301,-199.5 380,-199.5 "/>
<path fill="none" stroke="black" d="M380,-199.5C386,-199.5 392,-205.5 392,-211.5"/>
<polyline fill="none" stroke="black" points="392,-211.5 392,-406.5 "/>
<path fill="none" stroke="black" d="M392,-406.5C392,-412.5 386,-418.5 380,-418.5"/>
<polyline fill="none" stroke="black" points="380,-418.5 301,-418.5 "/>
<path fill="none" stroke="black" d="M301,-418.5C295,-418.5 289,-412.5 289,-406.5"/>
<polyline fill="none" stroke="black" points="289,-406.5 289,-211.5 "/>
<path fill="none" stroke="black" d="M289,-211.5C289,-205.5 295,-199.5 301,-199.5"/>
<text text-anchor="middle" x="340.5" y="-401.9" font-family="Times Roman,serif" font-size="14.00">LoresController</text>
<polyline fill="none" stroke="black" points="289,-391.5 392,-391.5 "/>
<text text-anchor="start" x="297" y="-374.9" font-family="Times Roman,serif" font-size="14.00">create</text>
<text text-anchor="start" x="297" y="-355.9" font-family="Times Roman,serif" font-size="14.00">destroy</text>
<text text-anchor="start" x="297" y="-336.9" font-family="Times Roman,serif" font-size="14.00">edit</text>
<text text-anchor="start" x="297" y="-317.9" font-family="Times Roman,serif" font-size="14.00">index</text>
<text text-anchor="start" x="297" y="-298.9" font-family="Times Roman,serif" font-size="14.00">new</text>
<text text-anchor="start" x="297" y="-279.9" font-family="Times Roman,serif" font-size="14.00">show</text>
<text text-anchor="start" x="297" y="-260.9" font-family="Times Roman,serif" font-size="14.00">update</text>
<polyline fill="none" stroke="black" points="289,-250.5 392,-250.5 "/>
<polyline fill="none" stroke="black" points="289,-226.5 392,-226.5 "/>
<text text-anchor="start" x="297" y="-209.9" font-family="Times Roman,serif" font-size="14.00">_layout</text>
</g>
<!-- ApplicationController -->
<g id="node4" class="node"><title>ApplicationController</title>
<polyline fill="none" stroke="black" points="211,-1.5 384,-1.5 "/>
<path fill="none" stroke="black" d="M384,-1.5C390,-1.5 396,-7.5 396,-13.5"/>
<polyline fill="none" stroke="black" points="396,-13.5 396,-113.5 "/>
<path fill="none" stroke="black" d="M396,-113.5C396,-119.5 390,-125.5 384,-125.5"/>
<polyline fill="none" stroke="black" points="384,-125.5 211,-125.5 "/>
<path fill="none" stroke="black" d="M211,-125.5C205,-125.5 199,-119.5 199,-113.5"/>
<polyline fill="none" stroke="black" points="199,-113.5 199,-13.5 "/>
<path fill="none" stroke="black" d="M199,-13.5C199,-7.5 205,-1.5 211,-1.5"/>
<text text-anchor="middle" x="297.5" y="-108.9" font-family="Times Roman,serif" font-size="14.00">ApplicationController</text>
<polyline fill="none" stroke="black" points="199,-98.5 396,-98.5 "/>
<text text-anchor="start" x="207" y="-81.9" font-family="Times Roman,serif" font-size="14.00">_one_time_conditions_valid_16?</text>
<polyline fill="none" stroke="black" points="199,-71.5 396,-71.5 "/>
<polyline fill="none" stroke="black" points="199,-47.5 396,-47.5 "/>
<text text-anchor="start" x="207" y="-30.9" font-family="Times Roman,serif" font-size="14.00">_layout</text>
<text text-anchor="start" x="207" y="-11.9" font-family="Times Roman,serif" font-size="14.00">_run_process_action_callbacks</text>
</g>
<!-- KukusController -->
<g id="node5" class="node"><title>KukusController</title>
<polyline fill="none" stroke="black" points="157,-415.5 240,-415.5 "/>
<path fill="none" stroke="black" d="M240,-415.5C246,-415.5 252,-421.5 252,-427.5"/>
<polyline fill="none" stroke="black" points="252,-427.5 252,-622.5 "/>
<path fill="none" stroke="black" d="M252,-622.5C252,-628.5 246,-634.5 240,-634.5"/>
<polyline fill="none" stroke="black" points="240,-634.5 157,-634.5 "/>
<path fill="none" stroke="black" d="M157,-634.5C151,-634.5 145,-628.5 145,-622.5"/>
<polyline fill="none" stroke="black" points="145,-622.5 145,-427.5 "/>
<path fill="none" stroke="black" d="M145,-427.5C145,-421.5 151,-415.5 157,-415.5"/>
<text text-anchor="middle" x="198.5" y="-617.9" font-family="Times Roman,serif" font-size="14.00">KukusController</text>
<polyline fill="none" stroke="black" points="145,-607.5 252,-607.5 "/>
<text text-anchor="start" x="153" y="-590.9" font-family="Times Roman,serif" font-size="14.00">create</text>
<text text-anchor="start" x="153" y="-571.9" font-family="Times Roman,serif" font-size="14.00">destroy</text>
<text text-anchor="start" x="153" y="-552.9" font-family="Times Roman,serif" font-size="14.00">edit</text>
<text text-anchor="start" x="153" y="-533.9" font-family="Times Roman,serif" font-size="14.00">index</text>
<text text-anchor="start" x="153" y="-514.9" font-family="Times Roman,serif" font-size="14.00">new</text>
<text text-anchor="start" x="153" y="-495.9" font-family="Times Roman,serif" font-size="14.00">show</text>
<text text-anchor="start" x="153" y="-476.9" font-family="Times Roman,serif" font-size="14.00">update</text>
<polyline fill="none" stroke="black" points="145,-466.5 252,-466.5 "/>
<polyline fill="none" stroke="black" points="145,-442.5 252,-442.5 "/>
<text text-anchor="start" x="153" y="-425.9" font-family="Times Roman,serif" font-size="14.00">_layout</text>
</g>
<!-- KukasController -->
<g id="node6" class="node"><title>KukasController</title>
<polyline fill="none" stroke="black" points="373,-451.5 456,-451.5 "/>
<path fill="none" stroke="black" d="M456,-451.5C462,-451.5 468,-457.5 468,-463.5"/>
<polyline fill="none" stroke="black" points="468,-463.5 468,-658.5 "/>
<path fill="none" stroke="black" d="M468,-658.5C468,-664.5 462,-670.5 456,-670.5"/>
<polyline fill="none" stroke="black" points="456,-670.5 373,-670.5 "/>
<path fill="none" stroke="black" d="M373,-670.5C367,-670.5 361,-664.5 361,-658.5"/>
<polyline fill="none" stroke="black" points="361,-658.5 361,-463.5 "/>
<path fill="none" stroke="black" d="M361,-463.5C361,-457.5 367,-451.5 373,-451.5"/>
<text text-anchor="middle" x="414.5" y="-653.9" font-family="Times Roman,serif" font-size="14.00">KukasController</text>
<polyline fill="none" stroke="black" points="361,-643.5 468,-643.5 "/>
<text text-anchor="start" x="369" y="-626.9" font-family="Times Roman,serif" font-size="14.00">create</text>
<text text-anchor="start" x="369" y="-607.9" font-family="Times Roman,serif" font-size="14.00">destroy</text>
<text text-anchor="start" x="369" y="-588.9" font-family="Times Roman,serif" font-size="14.00">edit</text>
<text text-anchor="start" x="369" y="-569.9" font-family="Times Roman,serif" font-size="14.00">index</text>
<text text-anchor="start" x="369" y="-550.9" font-family="Times Roman,serif" font-size="14.00">new</text>
<text text-anchor="start" x="369" y="-531.9" font-family="Times Roman,serif" font-size="14.00">show</text>
<text text-anchor="start" x="369" y="-512.9" font-family="Times Roman,serif" font-size="14.00">update</text>
<polyline fill="none" stroke="black" points="361,-502.5 468,-502.5 "/>
<polyline fill="none" stroke="black" points="361,-478.5 468,-478.5 "/>
<text text-anchor="start" x="369" y="-461.9" font-family="Times Roman,serif" font-size="14.00">_layout</text>
</g>
<!-- PostsController -->
<g id="node7" class="node"><title>PostsController</title>
<polyline fill="none" stroke="black" points="13,-289.5 90,-289.5 "/>
<path fill="none" stroke="black" d="M90,-289.5C96,-289.5 102,-295.5 102,-301.5"/>
<polyline fill="none" stroke="black" points="102,-301.5 102,-496.5 "/>
<path fill="none" stroke="black" d="M102,-496.5C102,-502.5 96,-508.5 90,-508.5"/>
<polyline fill="none" stroke="black" points="90,-508.5 13,-508.5 "/>
<path fill="none" stroke="black" d="M13,-508.5C7,-508.5 1,-502.5 1,-496.5"/>
<polyline fill="none" stroke="black" points="1,-496.5 1,-301.5 "/>
<path fill="none" stroke="black" d="M1,-301.5C1,-295.5 7,-289.5 13,-289.5"/>
<text text-anchor="middle" x="51.5" y="-491.9" font-family="Times Roman,serif" font-size="14.00">PostsController</text>
<polyline fill="none" stroke="black" points="1,-481.5 102,-481.5 "/>
<text text-anchor="start" x="9" y="-464.9" font-family="Times Roman,serif" font-size="14.00">create</text>
<text text-anchor="start" x="9" y="-445.9" font-family="Times Roman,serif" font-size="14.00">destroy</text>
<text text-anchor="start" x="9" y="-426.9" font-family="Times Roman,serif" font-size="14.00">edit</text>
<text text-anchor="start" x="9" y="-407.9" font-family="Times Roman,serif" font-size="14.00">index</text>
<text text-anchor="start" x="9" y="-388.9" font-family="Times Roman,serif" font-size="14.00">new</text>
<text text-anchor="start" x="9" y="-369.9" font-family="Times Roman,serif" font-size="14.00">show</text>
<text text-anchor="start" x="9" y="-350.9" font-family="Times Roman,serif" font-size="14.00">update</text>
<polyline fill="none" stroke="black" points="1,-340.5 102,-340.5 "/>
<polyline fill="none" stroke="black" points="1,-316.5 102,-316.5 "/>
<text text-anchor="start" x="9" y="-299.9" font-family="Times Roman,serif" font-size="14.00">_layout</text>
</g>
<!-- TagsController -->
<g id="node8" class="node"><title>TagsController</title>
<polyline fill="none" stroke="black" points="445,-55.5 519,-55.5 "/>
<path fill="none" stroke="black" d="M519,-55.5C525,-55.5 531,-61.5 531,-67.5"/>
<polyline fill="none" stroke="black" points="531,-67.5 531,-262.5 "/>
<path fill="none" stroke="black" d="M531,-262.5C531,-268.5 525,-274.5 519,-274.5"/>
<polyline fill="none" stroke="black" points="519,-274.5 445,-274.5 "/>
<path fill="none" stroke="black" d="M445,-274.5C439,-274.5 433,-268.5 433,-262.5"/>
<polyline fill="none" stroke="black" points="433,-262.5 433,-67.5 "/>
<path fill="none" stroke="black" d="M433,-67.5C433,-61.5 439,-55.5 445,-55.5"/>
<text text-anchor="middle" x="482" y="-257.9" font-family="Times Roman,serif" font-size="14.00">TagsController</text>
<polyline fill="none" stroke="black" points="433,-247.5 531,-247.5 "/>
<text text-anchor="start" x="441" y="-230.9" font-family="Times Roman,serif" font-size="14.00">create</text>
<text text-anchor="start" x="441" y="-211.9" font-family="Times Roman,serif" font-size="14.00">destroy</text>
<text text-anchor="start" x="441" y="-192.9" font-family="Times Roman,serif" font-size="14.00">edit</text>
<text text-anchor="start" x="441" y="-173.9" font-family="Times Roman,serif" font-size="14.00">index</text>
<text text-anchor="start" x="441" y="-154.9" font-family="Times Roman,serif" font-size="14.00">new</text>
<text text-anchor="start" x="441" y="-135.9" font-family="Times Roman,serif" font-size="14.00">show</text>
<text text-anchor="start" x="441" y="-116.9" font-family="Times Roman,serif" font-size="14.00">update</text>
<polyline fill="none" stroke="black" points="433,-106.5 531,-106.5 "/>
<polyline fill="none" stroke="black" points="433,-82.5 531,-82.5 "/>
<text text-anchor="start" x="441" y="-65.9" font-family="Times Roman,serif" font-size="14.00">_layout</text>
</g>
<!-- PagesController -->
<g id="node9" class="node"><title>PagesController</title>
<polyline fill="none" stroke="black" points="13,-145.5 93,-145.5 "/>
<path fill="none" stroke="black" d="M93,-145.5C99,-145.5 105,-151.5 105,-157.5"/>
<polyline fill="none" stroke="black" points="105,-157.5 105,-238.5 "/>
<path fill="none" stroke="black" d="M105,-238.5C105,-244.5 99,-250.5 93,-250.5"/>
<polyline fill="none" stroke="black" points="93,-250.5 13,-250.5 "/>
<path fill="none" stroke="black" d="M13,-250.5C7,-250.5 1,-244.5 1,-238.5"/>
<polyline fill="none" stroke="black" points="1,-238.5 1,-157.5 "/>
<path fill="none" stroke="black" d="M1,-157.5C1,-151.5 7,-145.5 13,-145.5"/>
<text text-anchor="middle" x="53" y="-233.9" font-family="Times Roman,serif" font-size="14.00">PagesController</text>
<polyline fill="none" stroke="black" points="1,-223.5 105,-223.5 "/>
<text text-anchor="start" x="9" y="-206.9" font-family="Times Roman,serif" font-size="14.00">about</text>
<polyline fill="none" stroke="black" points="1,-196.5 105,-196.5 "/>
<polyline fill="none" stroke="black" points="1,-172.5 105,-172.5 "/>
<text text-anchor="start" x="9" y="-155.9" font-family="Times Roman,serif" font-size="14.00">_layout</text>
</g>
</g>
</svg>
