<?xml version="1.0" encoding="UTF-8" standalone="no"?>
<!DOCTYPE svg PUBLIC "-//W3C//DTD SVG 1.1//EN"
 "http://www.w3.org/Graphics/SVG/1.1/DTD/svg11.dtd">
<!-- Generated by graphviz version 2.26.3 (20100126.1600)
 -->
<!-- Title: models_diagram Pages: 1 -->
<svg width="1276pt" height="158pt"
 viewBox="0.00 0.00 1276.00 158.00" xmlns="http://www.w3.org/2000/svg" xmlns:xlink="http://www.w3.org/1999/xlink">
<g id="graph1" class="graph" transform="scale(1 1) rotate(0) translate(4 154)">
<title>models_diagram</title>
<polygon fill="white" stroke="white" points="-4,5 -4,-154 1273,-154 1273,5 -4,5"/>
<!-- _diagram_info -->
<g id="node1" class="node"><title>_diagram_info</title>
<text text-anchor="start" x="8" y="-105.8" font-family="Times Roman,serif" font-size="13.00">Models diagram</text>
<text text-anchor="start" x="8" y="-88.8" font-family="Times Roman,serif" font-size="13.00">Date: Mar 14 2011 &#45; 16:39</text>
<text text-anchor="start" x="8" y="-71.8" font-family="Times Roman,serif" font-size="13.00">Migration version: 20110311212614</text>
<text text-anchor="start" x="8" y="-54.8" font-family="Times Roman,serif" font-size="13.00">Generated by RailRoady 1.0.1</text>
<text text-anchor="start" x="8" y="-37.8" font-family="Times Roman,serif" font-size="13.00">http://railroady.prestonlee.com</text>
</g>
<!-- Lore -->
<g id="node2" class="node"><title>Lore</title>
<polyline fill="none" stroke="black" points="243.5,-10 350.5,-10 "/>
<path fill="none" stroke="black" d="M350.5,-10C356.5,-10 362.5,-16 362.5,-22"/>
<polyline fill="none" stroke="black" points="362.5,-22 362.5,-128 "/>
<path fill="none" stroke="black" d="M362.5,-128C362.5,-134 356.5,-140 350.5,-140"/>
<polyline fill="none" stroke="black" points="350.5,-140 243.5,-140 "/>
<path fill="none" stroke="black" d="M243.5,-140C237.5,-140 231.5,-134 231.5,-128"/>
<polyline fill="none" stroke="black" points="231.5,-128 231.5,-22 "/>
<path fill="none" stroke="black" d="M231.5,-22C231.5,-16 237.5,-10 243.5,-10"/>
<text text-anchor="middle" x="297" y="-123.4" font-family="Times Roman,serif" font-size="14.00">Lore</text>
<polyline fill="none" stroke="black" points="231.5,-113 362.5,-113 "/>
<text text-anchor="start" x="239.5" y="-96.4" font-family="Times Roman,serif" font-size="14.00">name :string</text>
<text text-anchor="start" x="239.5" y="-77.4" font-family="Times Roman,serif" font-size="14.00">description :string</text>
<text text-anchor="start" x="239.5" y="-58.4" font-family="Times Roman,serif" font-size="14.00">created_at :datetime</text>
<text text-anchor="start" x="239.5" y="-39.4" font-family="Times Roman,serif" font-size="14.00">updated_at :datetime</text>
<text text-anchor="start" x="239.5" y="-20.4" font-family="Times Roman,serif" font-size="14.00">georef :integer</text>
</g>
<!-- Kuka -->
<g id="node3" class="node"><title>Kuka</title>
<polyline fill="none" stroke="black" points="391.5,-19.5 498.5,-19.5 "/>
<path fill="none" stroke="black" d="M498.5,-19.5C504.5,-19.5 510.5,-25.5 510.5,-31.5"/>
<polyline fill="none" stroke="black" points="510.5,-31.5 510.5,-118.5 "/>
<path fill="none" stroke="black" d="M510.5,-118.5C510.5,-124.5 504.5,-130.5 498.5,-130.5"/>
<polyline fill="none" stroke="black" points="498.5,-130.5 391.5,-130.5 "/>
<path fill="none" stroke="black" d="M391.5,-130.5C385.5,-130.5 379.5,-124.5 379.5,-118.5"/>
<polyline fill="none" stroke="black" points="379.5,-118.5 379.5,-31.5 "/>
<path fill="none" stroke="black" d="M379.5,-31.5C379.5,-25.5 385.5,-19.5 391.5,-19.5"/>
<text text-anchor="middle" x="445" y="-113.9" font-family="Times Roman,serif" font-size="14.00">Kuka</text>
<polyline fill="none" stroke="black" points="379.5,-103.5 510.5,-103.5 "/>
<text text-anchor="start" x="387.5" y="-86.9" font-family="Times Roman,serif" font-size="14.00">name :string</text>
<text text-anchor="start" x="387.5" y="-67.9" font-family="Times Roman,serif" font-size="14.00">comment :string</text>
<text text-anchor="start" x="387.5" y="-48.9" font-family="Times Roman,serif" font-size="14.00">created_at :datetime</text>
<text text-anchor="start" x="387.5" y="-29.9" font-family="Times Roman,serif" font-size="14.00">updated_at :datetime</text>
</g>
<!-- Tag -->
<g id="node4" class="node"><title>Tag</title>
<polyline fill="none" stroke="black" points="539.5,-10 646.5,-10 "/>
<path fill="none" stroke="black" d="M646.5,-10C652.5,-10 658.5,-16 658.5,-22"/>
<polyline fill="none" stroke="black" points="658.5,-22 658.5,-128 "/>
<path fill="none" stroke="black" d="M658.5,-128C658.5,-134 652.5,-140 646.5,-140"/>
<polyline fill="none" stroke="black" points="646.5,-140 539.5,-140 "/>
<path fill="none" stroke="black" d="M539.5,-140C533.5,-140 527.5,-134 527.5,-128"/>
<polyline fill="none" stroke="black" points="527.5,-128 527.5,-22 "/>
<path fill="none" stroke="black" d="M527.5,-22C527.5,-16 533.5,-10 539.5,-10"/>
<text text-anchor="middle" x="593" y="-123.4" font-family="Times Roman,serif" font-size="14.00">Tag</text>
<polyline fill="none" stroke="black" points="527.5,-113 658.5,-113 "/>
<text text-anchor="start" x="535.5" y="-96.4" font-family="Times Roman,serif" font-size="14.00">name :string</text>
<text text-anchor="start" x="535.5" y="-77.4" font-family="Times Roman,serif" font-size="14.00">description :string</text>
<text text-anchor="start" x="535.5" y="-58.4" font-family="Times Roman,serif" font-size="14.00">created_at :datetime</text>
<text text-anchor="start" x="535.5" y="-39.4" font-family="Times Roman,serif" font-size="14.00">updated_at :datetime</text>
<text text-anchor="start" x="535.5" y="-20.4" font-family="Times Roman,serif" font-size="14.00">tag_type :string</text>
</g>
<!-- Place -->
<g id="node5" class="node"><title>Place</title>
<polyline fill="none" stroke="black" points="687.5,-19.5 794.5,-19.5 "/>
<path fill="none" stroke="black" d="M794.5,-19.5C800.5,-19.5 806.5,-25.5 806.5,-31.5"/>
<polyline fill="none" stroke="black" points="806.5,-31.5 806.5,-118.5 "/>
<path fill="none" stroke="black" d="M806.5,-118.5C806.5,-124.5 800.5,-130.5 794.5,-130.5"/>
<polyline fill="none" stroke="black" points="794.5,-130.5 687.5,-130.5 "/>
<path fill="none" stroke="black" d="M687.5,-130.5C681.5,-130.5 675.5,-124.5 675.5,-118.5"/>
<polyline fill="none" stroke="black" points="675.5,-118.5 675.5,-31.5 "/>
<path fill="none" stroke="black" d="M675.5,-31.5C675.5,-25.5 681.5,-19.5 687.5,-19.5"/>
<text text-anchor="middle" x="741" y="-113.9" font-family="Times Roman,serif" font-size="14.00">Place</text>
<polyline fill="none" stroke="black" points="675.5,-103.5 806.5,-103.5 "/>
<text text-anchor="start" x="683.5" y="-86.9" font-family="Times Roman,serif" font-size="14.00">name :string</text>
<text text-anchor="start" x="683.5" y="-67.9" font-family="Times Roman,serif" font-size="14.00">description :string</text>
<text text-anchor="start" x="683.5" y="-48.9" font-family="Times Roman,serif" font-size="14.00">created_at :datetime</text>
<text text-anchor="start" x="683.5" y="-29.9" font-family="Times Roman,serif" font-size="14.00">updated_at :datetime</text>
</g>
<!-- Kuku -->
<g id="node6" class="node"><title>Kuku</title>
<polyline fill="none" stroke="black" points="835.5,-19.5 942.5,-19.5 "/>
<path fill="none" stroke="black" d="M942.5,-19.5C948.5,-19.5 954.5,-25.5 954.5,-31.5"/>
<polyline fill="none" stroke="black" points="954.5,-31.5 954.5,-118.5 "/>
<path fill="none" stroke="black" d="M954.5,-118.5C954.5,-124.5 948.5,-130.5 942.5,-130.5"/>
<polyline fill="none" stroke="black" points="942.5,-130.5 835.5,-130.5 "/>
<path fill="none" stroke="black" d="M835.5,-130.5C829.5,-130.5 823.5,-124.5 823.5,-118.5"/>
<polyline fill="none" stroke="black" points="823.5,-118.5 823.5,-31.5 "/>
<path fill="none" stroke="black" d="M823.5,-31.5C823.5,-25.5 829.5,-19.5 835.5,-19.5"/>
<text text-anchor="middle" x="889" y="-113.9" font-family="Times Roman,serif" font-size="14.00">Kuku</text>
<polyline fill="none" stroke="black" points="823.5,-103.5 954.5,-103.5 "/>
<text text-anchor="start" x="831.5" y="-86.9" font-family="Times Roman,serif" font-size="14.00">name :string</text>
<text text-anchor="start" x="831.5" y="-67.9" font-family="Times Roman,serif" font-size="14.00">comment :string</text>
<text text-anchor="start" x="831.5" y="-48.9" font-family="Times Roman,serif" font-size="14.00">created_at :datetime</text>
<text text-anchor="start" x="831.5" y="-29.9" font-family="Times Roman,serif" font-size="14.00">updated_at :datetime</text>
</g>
<!-- Post -->
<g id="node7" class="node"><title>Post</title>
<polyline fill="none" stroke="black" points="983.5,-29 1090.5,-29 "/>
<path fill="none" stroke="black" d="M1090.5,-29C1096.5,-29 1102.5,-35 1102.5,-41"/>
<polyline fill="none" stroke="black" points="1102.5,-41 1102.5,-109 "/>
<path fill="none" stroke="black" d="M1102.5,-109C1102.5,-115 1096.5,-121 1090.5,-121"/>
<polyline fill="none" stroke="black" points="1090.5,-121 983.5,-121 "/>
<path fill="none" stroke="black" d="M983.5,-121C977.5,-121 971.5,-115 971.5,-109"/>
<polyline fill="none" stroke="black" points="971.5,-109 971.5,-41 "/>
<path fill="none" stroke="black" d="M971.5,-41C971.5,-35 977.5,-29 983.5,-29"/>
<text text-anchor="middle" x="1037" y="-104.4" font-family="Times Roman,serif" font-size="14.00">Post</text>
<polyline fill="none" stroke="black" points="971.5,-94 1102.5,-94 "/>
<text text-anchor="start" x="979.5" y="-77.4" font-family="Times Roman,serif" font-size="14.00">title :string</text>
<text text-anchor="start" x="979.5" y="-58.4" font-family="Times Roman,serif" font-size="14.00">created_at :datetime</text>
<text text-anchor="start" x="979.5" y="-39.4" font-family="Times Roman,serif" font-size="14.00">updated_at :datetime</text>
</g>
<!-- Event -->
<g id="node8" class="node"><title>Event</title>
<polyline fill="none" stroke="black" points="1131.5,-0.5 1256.5,-0.5 "/>
<path fill="none" stroke="black" d="M1256.5,-0.5C1262.5,-0.5 1268.5,-6.5 1268.5,-12.5"/>
<polyline fill="none" stroke="black" points="1268.5,-12.5 1268.5,-137.5 "/>
<path fill="none" stroke="black" d="M1268.5,-137.5C1268.5,-143.5 1262.5,-149.5 1256.5,-149.5"/>
<polyline fill="none" stroke="black" points="1256.5,-149.5 1131.5,-149.5 "/>
<path fill="none" stroke="black" d="M1131.5,-149.5C1125.5,-149.5 1119.5,-143.5 1119.5,-137.5"/>
<polyline fill="none" stroke="black" points="1119.5,-137.5 1119.5,-12.5 "/>
<path fill="none" stroke="black" d="M1119.5,-12.5C1119.5,-6.5 1125.5,-0.5 1131.5,-0.5"/>
<text text-anchor="middle" x="1194" y="-132.9" font-family="Times Roman,serif" font-size="14.00">Event</text>
<polyline fill="none" stroke="black" points="1119.5,-122.5 1268.5,-122.5 "/>
<text text-anchor="start" x="1127.5" y="-105.9" font-family="Times Roman,serif" font-size="14.00">name :string</text>
<text text-anchor="start" x="1127.5" y="-86.9" font-family="Times Roman,serif" font-size="14.00">description :string</text>
<text text-anchor="start" x="1127.5" y="-67.9" font-family="Times Roman,serif" font-size="14.00">start_datetime :datetime</text>
<text text-anchor="start" x="1127.5" y="-48.9" font-family="Times Roman,serif" font-size="14.00">recurrence :integer</text>
<text text-anchor="start" x="1127.5" y="-29.9" font-family="Times Roman,serif" font-size="14.00">created_at :datetime</text>
<text text-anchor="start" x="1127.5" y="-10.9" font-family="Times Roman,serif" font-size="14.00">updated_at :datetime</text>
</g>
</g>
</svg>
